<svg xmlns="http://www.w3.org/2000/svg" xmlns:xlink="http://www.w3.org/1999/xlink" width="797" zoomAndPan="magnify" viewBox="353 639 797 261" height="261" preserveAspectRatio="xMidYMid meet" version="1.0"><defs><g/><clipPath id="09c8fd1673"><path d="M 799 655.308594 L 888.246094 655.308594 L 888.246094 794.808594 L 799 794.808594 Z M 799 655.308594 " clip-rule="nonzero"/></clipPath><clipPath id="3226f90ea8"><rect x="0" width="504" y="0" height="260"/></clipPath><clipPath id="076af93042"><rect x="0" width="824" y="0" height="77"/></clipPath><clipPath id="5cc85c66d9"><rect x="0" width="172" y="0" height="260"/></clipPath></defs><g clip-path="url(#09c8fd1673)"><path fill="#ff0b55" d="M 844.082031 655.882812 C 843.257812 657.910156 839.394531 666.171875 837.445312 670.039062 C 832.738281 679.371094 829.179688 685.703125 819.769531 701.410156 C 812.117188 714.1875 809.898438 717.976562 807.144531 723.027344 C 800.8125 734.617188 799.03125 740.261719 799.03125 748.753906 C 799.03125 756.425781 800.445312 762.875 803.527344 769.222656 C 805.132812 772.550781 806.128906 774.179688 808.214844 776.992188 C 814.488281 785.40625 824.089844 791.664062 834.171875 793.921875 C 844.175781 796.140625 854.566406 794.992188 863.554688 790.628906 C 867.957031 788.507812 871.167969 786.269531 874.554688 782.996094 C 881.691406 776.109375 886.1875 767.332031 887.753906 757.269531 C 889.324219 747.089844 888.042969 738.484375 883.449219 728.421875 C 881.558594 724.289062 875.070312 712.410156 871.359375 706.25 C 867.054688 699.152344 858.90625 684.84375 855.464844 678.414062 C 853.246094 674.246094 848.253906 664.085938 846.453125 660.089844 C 845.765625 658.503906 844.980469 656.78125 844.730469 656.265625 L 844.3125 655.308594 Z M 874.019531 747.015625 C 875.339844 747.609375 875.703125 748.355469 875.78125 750.515625 C 875.894531 753.691406 874.976562 758.644531 873.617188 762.144531 C 871.265625 768.269531 866.769531 773.816406 861.316406 777.355469 C 859.460938 778.539062 856.441406 779.976562 854.257812 780.683594 C 850.796875 781.8125 845.898438 782.480469 844.3125 782.058594 C 842.148438 781.46875 841.019531 779.152344 841.9375 777.144531 C 842.476562 775.976562 843.394531 775.363281 844.960938 775.136719 C 849.898438 774.410156 851.808594 773.871094 854.910156 772.304688 C 859.882812 769.796875 864.074219 765.589844 866.597656 760.519531 C 868.128906 757.441406 868.910156 754.359375 869.238281 750.246094 C 869.371094 748.507812 869.773438 747.742188 870.941406 747.089844 C 871.878906 746.554688 872.96875 746.535156 874.019531 747.015625 Z M 874.019531 747.015625 " fill-opacity="1" fill-rule="nonzero"/></g><g transform="matrix(1, 0, 0, 1, 453, 585)"><g clip-path="url(#3226f90ea8)"><g fill="#ff0b55" fill-opacity="1"><g transform="translate(1.047094, 208.490456)"><g><path d="M 127.625 -15.859375 C 129.582031 -12.859375 131.601562 -10.441406 133.6875 -8.609375 C 135.78125 -6.785156 138.457031 -5.222656 141.71875 -3.921875 L 141.71875 0 C 132.582031 -0.394531 122.40625 -0.59375 111.1875 -0.59375 C 102.570312 -0.59375 94.285156 -0.394531 86.328125 0 L 86.328125 -3.921875 C 89.984375 -4.179688 92.625 -4.570312 94.25 -5.09375 C 95.882812 -5.613281 96.703125 -6.523438 96.703125 -7.828125 C 96.703125 -8.867188 95.984375 -10.5 94.546875 -12.71875 L 66.15625 -58.71875 C 63.550781 -62.894531 61.367188 -65.703125 59.609375 -67.140625 C 57.847656 -68.578125 55.46875 -69.425781 52.46875 -69.6875 L 52.46875 -20.75 C 52.46875 -15.789062 52.820312 -12.203125 53.53125 -9.984375 C 54.25 -7.765625 55.585938 -6.265625 57.546875 -5.484375 C 59.503906 -4.703125 62.703125 -4.179688 67.140625 -3.921875 L 67.140625 0 C 60.097656 -0.394531 50.242188 -0.59375 37.578125 -0.59375 C 23.617188 -0.59375 13.3125 -0.394531 6.65625 0 L 6.65625 -3.921875 C 10.957031 -4.179688 14.117188 -4.703125 16.140625 -5.484375 C 18.171875 -6.265625 19.546875 -7.765625 20.265625 -9.984375 C 20.984375 -12.203125 21.34375 -15.789062 21.34375 -20.75 L 21.34375 -117.84375 C 21.34375 -122.800781 20.984375 -126.390625 20.265625 -128.609375 C 19.546875 -130.828125 18.171875 -132.328125 16.140625 -133.109375 C 14.117188 -133.890625 10.957031 -134.410156 6.65625 -134.671875 L 6.65625 -138.59375 C 13.3125 -138.195312 23.617188 -138 37.578125 -138 C 50.242188 -138 60.097656 -138.195312 67.140625 -138.59375 L 67.140625 -134.671875 C 62.703125 -134.410156 59.503906 -133.890625 57.546875 -133.109375 C 55.585938 -132.328125 54.25 -130.828125 53.53125 -128.609375 C 52.820312 -126.390625 52.46875 -122.800781 52.46875 -117.84375 L 52.46875 -73.796875 C 57.6875 -74.054688 62.445312 -75.617188 66.75 -78.484375 C 71.050781 -81.359375 75.945312 -85.929688 81.4375 -92.203125 L 92.984375 -106.09375 C 98.984375 -113.007812 101.984375 -119.078125 101.984375 -124.296875 C 101.984375 -127.429688 100.707031 -129.910156 98.15625 -131.734375 C 95.613281 -133.566406 92.0625 -134.613281 87.5 -134.875 L 87.5 -138.59375 C 97.03125 -138.195312 106.6875 -138 116.46875 -138 C 124.039062 -138 130.175781 -138.195312 134.875 -138.59375 L 134.875 -134.875 C 124.4375 -132.394531 114.972656 -126.128906 106.484375 -116.078125 L 82.015625 -86.90625 Z M 127.625 -15.859375 "/></g></g></g><g fill="#ff0b55" fill-opacity="1"><g transform="translate(174.680755, 208.490456)"><g><path d="M 139.375 -8.609375 C 135.851562 -4.566406 132.066406 -1.664062 128.015625 0.09375 C 123.972656 1.851562 119.082031 2.734375 113.34375 2.734375 C 105.769531 2.734375 99.796875 1.140625 95.421875 -2.046875 C 91.054688 -5.242188 88.21875 -10.695312 86.90625 -18.40625 L 83.390625 -37.96875 C 81.691406 -47.5 79.632812 -54.515625 77.21875 -59.015625 C 74.8125 -63.515625 70.800781 -65.765625 65.1875 -65.765625 L 52.46875 -65.765625 L 52.46875 -20.75 C 52.46875 -15.789062 52.820312 -12.203125 53.53125 -9.984375 C 54.25 -7.765625 55.585938 -6.265625 57.546875 -5.484375 C 59.503906 -4.703125 62.703125 -4.179688 67.140625 -3.921875 L 67.140625 0 C 60.097656 -0.394531 50.242188 -0.59375 37.578125 -0.59375 C 23.617188 -0.59375 13.3125 -0.394531 6.65625 0 L 6.65625 -3.921875 C 10.957031 -4.179688 14.117188 -4.703125 16.140625 -5.484375 C 18.171875 -6.265625 19.546875 -7.765625 20.265625 -9.984375 C 20.984375 -12.203125 21.34375 -15.789062 21.34375 -20.75 L 21.34375 -117.84375 C 21.34375 -122.800781 20.984375 -126.390625 20.265625 -128.609375 C 19.546875 -130.828125 18.171875 -132.328125 16.140625 -133.109375 C 14.117188 -133.890625 10.957031 -134.410156 6.65625 -134.671875 L 6.65625 -138.59375 C 13.3125 -138.195312 23.226562 -138 36.40625 -138 L 58.140625 -138.203125 C 60.742188 -138.328125 63.742188 -138.390625 67.140625 -138.390625 C 85.148438 -138.390625 98.6875 -135.453125 107.75 -129.578125 C 116.820312 -123.710938 121.359375 -115.296875 121.359375 -104.328125 C 121.359375 -95.066406 117.960938 -86.910156 111.171875 -79.859375 C 104.390625 -72.816406 93.171875 -68.382812 77.515625 -66.5625 C 89.265625 -65.507812 98.007812 -62.960938 103.75 -58.921875 C 109.488281 -54.878906 113.207031 -48.8125 114.90625 -40.71875 L 119.40625 -20.546875 C 120.445312 -15.328125 121.648438 -11.671875 123.015625 -9.578125 C 124.390625 -7.492188 126.316406 -6.453125 128.796875 -6.453125 C 130.367188 -6.585938 131.707031 -6.976562 132.8125 -7.625 C 133.925781 -8.28125 135.203125 -9.394531 136.640625 -10.96875 Z M 64.59375 -134.671875 C 61.070312 -134.671875 58.492188 -134.210938 56.859375 -133.296875 C 55.234375 -132.390625 54.09375 -130.757812 53.4375 -128.40625 C 52.789062 -126.0625 52.46875 -122.539062 52.46875 -117.84375 L 52.46875 -69.6875 L 60.875 -69.6875 C 71.582031 -69.6875 78.925781 -72.523438 82.90625 -78.203125 C 86.882812 -83.878906 88.875 -91.875 88.875 -102.1875 C 88.875 -112.882812 86.976562 -120.972656 83.1875 -126.453125 C 79.40625 -131.929688 73.207031 -134.671875 64.59375 -134.671875 Z M 64.59375 -134.671875 "/></g></g></g><g fill="#ff0b55" fill-opacity="1"><g transform="translate(341.862623, 208.490456)"><g/></g></g><g fill="#ff0b55" fill-opacity="1"><g transform="translate(421.340285, 208.490456)"><g/></g></g></g></g><g transform="matrix(1, 0, 0, 1, 362, 825)"><g clip-path="url(#076af93042)"><g fill="#ffdede" fill-opacity="1"><g transform="translate(1.072978, 59.090064)"><g><path d="M 5.21875 0 L 5.21875 -43.03125 L 19.75 -43.03125 C 23.125 -43.03125 25.882812 -42.425781 28.03125 -41.21875 C 30.1875 -40.007812 31.78125 -38.375 32.8125 -36.3125 C 33.851562 -34.25 34.375 -31.953125 34.375 -29.421875 C 34.375 -26.878906 33.859375 -24.570312 32.828125 -22.5 C 31.796875 -20.425781 30.207031 -18.773438 28.0625 -17.546875 C 25.925781 -16.328125 23.1875 -15.71875 19.84375 -15.71875 L 10.421875 -15.71875 L 10.421875 0 Z M 10.421875 -20.34375 L 19.671875 -20.34375 C 23.128906 -20.34375 25.585938 -21.207031 27.046875 -22.9375 C 28.515625 -24.675781 29.25 -26.835938 29.25 -29.421875 C 29.25 -32.015625 28.515625 -34.160156 27.046875 -35.859375 C 25.578125 -37.554688 23.085938 -38.40625 19.578125 -38.40625 L 10.421875 -38.40625 Z M 10.421875 -20.34375 "/></g></g></g><g fill="#ffdede" fill-opacity="1"><g transform="translate(83.266719, 59.090064)"><g><path d="M 5.21875 0 L 5.21875 -43.03125 L 31.1875 -43.03125 L 31.1875 -38.40625 L 10.421875 -38.40625 L 10.421875 -23.875 L 29.84375 -23.875 L 29.84375 -19.25 L 10.421875 -19.25 L 10.421875 -4.625 L 31.515625 -4.625 L 31.515625 0 Z M 5.21875 0 "/></g></g></g><g fill="#ffdede" fill-opacity="1"><g transform="translate(163.275301, 59.090064)"><g><path d="M 5.21875 0 L 5.21875 -43.03125 L 19.75 -43.03125 C 23.113281 -43.03125 25.875 -42.457031 28.03125 -41.3125 C 30.1875 -40.175781 31.78125 -38.613281 32.8125 -36.625 C 33.851562 -34.632812 34.375 -32.375 34.375 -29.84375 C 34.375 -26.976562 33.71875 -24.484375 32.40625 -22.359375 C 31.101562 -20.242188 29.078125 -18.71875 26.328125 -17.78125 L 36.0625 0 L 30 0 L 20.921875 -16.828125 C 20.578125 -16.816406 20.21875 -16.8125 19.84375 -16.8125 L 10.421875 -16.8125 L 10.421875 0 Z M 10.421875 -21.515625 L 19.671875 -21.515625 C 23.117188 -21.515625 25.578125 -22.253906 27.046875 -23.734375 C 28.515625 -25.222656 29.25 -27.257812 29.25 -29.84375 C 29.25 -32.425781 28.507812 -34.5 27.03125 -36.0625 C 25.550781 -37.625 23.066406 -38.40625 19.578125 -38.40625 L 10.421875 -38.40625 Z M 10.421875 -21.515625 "/></g></g></g><g fill="#ffdede" fill-opacity="1"><g transform="translate(245.721163, 59.090064)"><g><path d="M 5.21875 0 L 5.21875 -43.03125 L 31.015625 -43.03125 L 31.015625 -38.40625 L 10.421875 -38.40625 L 10.421875 -23.875 L 29.078125 -23.875 L 29.078125 -19.25 L 10.421875 -19.25 L 10.421875 0 Z M 5.21875 0 "/></g></g></g><g fill="#ffdede" fill-opacity="1"><g transform="translate(325.057422, 59.090064)"><g><path d="M 33.453125 -43.03125 L 38.65625 -43.03125 L 38.65625 -14.546875 C 38.65625 -11.316406 37.890625 -8.5625 36.359375 -6.28125 C 34.835938 -4 32.804688 -2.253906 30.265625 -1.046875 C 27.734375 0.148438 24.957031 0.75 21.9375 0.75 C 18.914062 0.75 16.132812 0.148438 13.59375 -1.046875 C 11.0625 -2.253906 9.03125 -4 7.5 -6.28125 C 5.976562 -8.5625 5.21875 -11.316406 5.21875 -14.546875 L 5.21875 -43.03125 L 10.421875 -43.03125 L 10.421875 -14.546875 C 10.421875 -12.296875 10.953125 -10.394531 12.015625 -8.84375 C 13.078125 -7.300781 14.484375 -6.128906 16.234375 -5.328125 C 17.992188 -4.523438 19.894531 -4.125 21.9375 -4.125 C 23.976562 -4.125 25.875 -4.523438 27.625 -5.328125 C 29.382812 -6.128906 30.796875 -7.300781 31.859375 -8.84375 C 32.921875 -10.394531 33.453125 -12.296875 33.453125 -14.546875 Z M 33.453125 -43.03125 "/></g></g></g><g fill="#ffdede" fill-opacity="1"><g transform="translate(413.554464, 59.090064)"><g><path d="M 5.21875 -43.03125 L 11.4375 -43.03125 L 26.0625 -7.3125 L 26.5625 -7.3125 L 41.1875 -43.03125 L 47.40625 -43.03125 L 47.40625 0 L 42.53125 0 L 42.53125 -32.703125 L 42.109375 -32.703125 L 28.65625 0 L 23.953125 0 L 10.5 -32.703125 L 10.09375 -32.703125 L 10.09375 0 L 5.21875 0 Z M 5.21875 -43.03125 "/></g></g></g><g fill="#ffdede" fill-opacity="1"><g transform="translate(512.136737, 59.090064)"><g><path d="M 5.21875 0 L 5.21875 -43.03125 L 31.1875 -43.03125 L 31.1875 -38.40625 L 10.421875 -38.40625 L 10.421875 -23.875 L 29.84375 -23.875 L 29.84375 -19.25 L 10.421875 -19.25 L 10.421875 -4.625 L 31.515625 -4.625 L 31.515625 0 Z M 5.21875 0 "/></g></g></g><g fill="#ffdede" fill-opacity="1"><g transform="translate(592.145318, 59.090064)"><g><path d="M 5.21875 0 L 5.21875 -43.03125 L 19.75 -43.03125 C 23.113281 -43.03125 25.875 -42.457031 28.03125 -41.3125 C 30.1875 -40.175781 31.78125 -38.613281 32.8125 -36.625 C 33.851562 -34.632812 34.375 -32.375 34.375 -29.84375 C 34.375 -26.976562 33.71875 -24.484375 32.40625 -22.359375 C 31.101562 -20.242188 29.078125 -18.71875 26.328125 -17.78125 L 36.0625 0 L 30 0 L 20.921875 -16.828125 C 20.578125 -16.816406 20.21875 -16.8125 19.84375 -16.8125 L 10.421875 -16.8125 L 10.421875 0 Z M 10.421875 -21.515625 L 19.671875 -21.515625 C 23.117188 -21.515625 25.578125 -22.253906 27.046875 -23.734375 C 28.515625 -25.222656 29.25 -27.257812 29.25 -29.84375 C 29.25 -32.425781 28.507812 -34.5 27.03125 -36.0625 C 25.550781 -37.625 23.066406 -38.40625 19.578125 -38.40625 L 10.421875 -38.40625 Z M 10.421875 -21.515625 "/></g></g></g><g fill="#ffdede" fill-opacity="1"><g transform="translate(674.59118, 59.090064)"><g><path d="M 10.421875 -43.03125 L 10.421875 0 L 5.21875 0 L 5.21875 -43.03125 Z M 5.546875 -47.40625 L 10.671875 -57.15625 L 16.46875 -57.15625 L 9.90625 -47.40625 Z M 5.546875 -47.40625 "/></g></g></g><g fill="#ffdede" fill-opacity="1"><g transform="translate(734.849503, 59.090064)"><g><path d="M 6.96875 0 L 1.515625 0 L 17.3125 -43.03125 L 22.6875 -43.03125 L 38.5 0 L 33.03125 0 L 28.703125 -12.1875 L 11.3125 -12.1875 Z M 12.9375 -16.8125 L 27.0625 -16.8125 L 20.171875 -36.21875 L 19.84375 -36.21875 Z M 12.9375 -16.8125 "/></g></g></g></g></g><g transform="matrix(1, 0, 0, 1, 901, 585)"><g clip-path="url(#5cc85c66d9)"><g fill="#ff0b55" fill-opacity="1"><g transform="translate(4.358647, 208.490456)"><g><path d="M 117.84375 -138 C 123.84375 -138 128.800781 -138.195312 132.71875 -138.59375 L 132.71875 -134.671875 C 129.457031 -133.503906 126.257812 -131.023438 123.125 -127.234375 C 119.988281 -123.453125 117.179688 -118.164062 114.703125 -111.375 L 73.40625 0.390625 C 71.96875 0.265625 69.6875 0.203125 66.5625 0.203125 C 63.550781 0.203125 61.332031 0.265625 59.90625 0.390625 L 9.984375 -122.140625 C 8.285156 -126.453125 6.328125 -129.585938 4.109375 -131.546875 C 1.890625 -133.503906 -0.257812 -134.546875 -2.34375 -134.671875 L -2.34375 -138.59375 C 5.476562 -138.195312 15.394531 -138 27.40625 -138 C 40.84375 -138 50.757812 -138.195312 57.15625 -138.59375 L 57.15625 -134.671875 C 52.195312 -134.410156 48.671875 -133.820312 46.578125 -132.90625 C 44.492188 -132 43.453125 -130.175781 43.453125 -127.4375 C 43.453125 -125.21875 44.238281 -122.148438 45.8125 -118.234375 L 80.25 -30.53125 L 104.328125 -95.53125 C 107.984375 -105.570312 109.8125 -113.53125 109.8125 -119.40625 C 109.8125 -124.625 108.410156 -128.40625 105.609375 -130.75 C 102.804688 -133.101562 98.726562 -134.410156 93.375 -134.671875 L 93.375 -138.59375 C 102.25 -138.195312 110.40625 -138 117.84375 -138 Z M 117.84375 -138 "/></g></g></g></g></g></svg>